<svg width="52" xmlns="http://www.w3.org/2000/svg" height="32" fill="none" viewBox="0 0 52 32"><g data-testid="Flags / United Kingdom"><g class="fills"><rect rx="0" ry="0" width="52" height="32" class="frame-background"/></g><g data-testid="Flags / United Kingdom" style="fill: rgb(0, 0, 0);" class="frame-children"><path d="M1 1v30h50V1Z" style="fill: rgb(1, 33, 105);" class="fills" data-testid="svg-path"/><g data-testid="svg-path"><path d="m1 1 50 30m0-30L1 31" class="fills"/><g class="strokes"><path d="m1 1 50 30m0-30L1 31" style="fill: none; stroke-width: 6; stroke: rgb(255, 255, 255); stroke-opacity: 1;" class="stroke-shape"/></g></g><g data-testid="svg-path"><defs><clipPath id="a" transform="translate(1 1)"><path d="M25 15h25v15zv15H0zH0V0zV0h25z"/></clipPath></defs><path d="m1 1 50 30m0-30L1 31" clip-path="url(#a)" class="fills"/><g clip-path="url(#a)" class="strokes"><path d="m1 1 50 30m0-30L1 31" style="fill: none; stroke-width: 4; stroke: rgb(200, 16, 46); stroke-opacity: 1;" class="stroke-shape"/></g></g><g data-testid="svg-path"><path d="M0 12h22V0h8v12h22v8H30v12h-8V20H0Z" style="fill: rgb(200, 16, 46);" class="fills"/><g class="strokes"><path d="M0 12h22V0h8v12h22v8H30v12h-8V20H0Z" style="fill: none; stroke-width: 2; stroke: rgb(255, 255, 255); stroke-opacity: 1;" class="stroke-shape"/></g></g></g></g></svg>